<svg width="30" height="50" viewBox="0 0 30 50" fill="none" xmlns="http://www.w3.org/2000/svg">
<path d="M2.20371 4.00963C0.788705 1.95578 1.82011 0.855122 2.51269 0.561528C3.95977 -0.435437 7.71174 0.214869 13.3076 11.4344C17.7843 20.4101 23.5867 23.1904 25.9283 23.4586C28.1012 24.3479 31.6063 26.265 28.2437 26.8195C24.0405 27.5126 18.4516 32.1891 13.6355 39.0866C8.81948 45.984 4.52818 49.147 2.49915 49.0994C0.47013 49.0517 0.472167 48.1555 1.75216 46.5164C3.03216 44.8774 4.31515 40.3452 4.77136 35.2125C5.22757 30.0798 7.92248 27.3971 9.50955 26.3037C7.43385 26.2882 5.7145 14.6006 5.42602 12.1837C5.13754 9.76671 3.97247 6.57695 2.20371 4.00963Z" fill="#FBFFF1"/>
</svg>
